<svg xmlns="http://www.w3.org/2000/svg" xmlns:xlink="http://www.w3.org/1999/xlink" version="1.1" x="0px" y="0px" viewBox="0 0 100 100" style="enable-background:new 0 0 100 100;" xml:space="preserve"><g><path d="M81.8074417,27.559515c-3.91539,0-7.1007385,3.1856155-7.1007385,7.1010036s3.1853485,7.1007385,7.1007385,7.1007385   s7.1007309-3.1853485,7.1007309-7.1007385S85.7228317,27.559515,81.8074417,27.559515z M81.8074417,40.1122208   c-3.0060577,0-5.4517059-2.4456444-5.4517059-5.4517021c0-3.0063248,2.4456482-5.4519653,5.4517059-5.4519653   s5.4516983,2.4456406,5.4516983,5.4519653C87.25914,37.6665764,84.8134995,40.1122208,81.8074417,40.1122208z"/><path d="M92.0699005,18.0125999H7.9300971c-3.0320916,0-5.4989371,2.4668465-5.4989371,5.4989376v40.502861v3.5047455v8.8968506   c0,3.0720825,2.4993219,5.5714035,5.5711365,5.5714035h83.8139725c3.1719284,0,5.7525711-2.5806427,5.7525711-5.7525711v-8.715683   v-3.5584221V23.5115376C97.56884,20.4794464,95.1019974,18.0125999,92.0699005,18.0125999z M95.9197998,67.5191422v8.715683   c0,2.2625961-1.8409348,4.1035385-4.1035309,4.1035385H8.0022964c-2.1627507,0-3.9220996-1.7596207-3.9220996-3.9223709v-8.8968506   V64.916214l30.7715569-19.7240257l15.9304924,10.1373901l11.134491-7.745697l34.0030632,17.386013V67.5191422z    M95.9197998,63.1175804L61.7868309,45.6653748l-11.0453835,7.6839638L34.8485336,43.2355652L4.0801969,62.9574127V23.5115376   c0-2.1227589,1.7271409-3.8498993,3.8499002-3.8498993h84.139801c2.1227646,0,3.8498993,1.7271404,3.8498993,3.8498993V63.1175804z   "/></g></svg>